# xmcd
#
# Track frame offsets:
#	150
#	1729
#	36392
#	56724
#	152036
#	197912
#
# Disc length: 2926 seconds
#
# Revision: 1
# Processed by: cddbd v1.5.2PL0 Copyright (c) Steve Scherf et al.
# Submitted via: audiograbber 1.83.01
#
DISCID=480b6c06
DTITLE=Grateful Dead - 73-07-27A Grand Prix Racecourse, Watkins Glen NY
DYEAR=1900
DGENRE=
TTITLE0="This Is Still A Test"
TTITLE1=Mississippi Half-Step
TTITLE2=Me and My Uncle
TTITLE3=Jam
TTITLE4=Wharf Rat
TTITLE5=Around and Around
EXTD=
EXTT0=
EXTT1=
EXTT2=
EXTT3=
EXTT4=
EXTT5=
PLAYORDER=
